<?xml version="1.0" encoding="utf-8"?>
<!-- Svg Vector Icons : http://www.onlinewebfonts.com/icon -->
<!DOCTYPE svg PUBLIC "-//W3C//DTD SVG 1.1//EN" "http://www.w3.org/Graphics/SVG/1.1/DTD/svg11.dtd">
<svg version="1.1" xmlns="http://www.w3.org/2000/svg" xmlns:xlink="http://www.w3.org/1999/xlink" x="0px" y="0px" viewBox="0 0 256 256" enable-background="new 0 0 256 256" xml:space="preserve">
<metadata> Svg Vector Icons : http://www.onlinewebfonts.com/icon </metadata>
<g><g><g><path fill="#ffffff" d="M165,82.9c-2.4,1.6-3.1,3.9-1.8,6.5l0.7,1.3l-7.5,7.4l-7.5,7.4l-3.5-1.2c-5-1.8-12.6-2-18-0.6c-4.7,1.2-10.5,3.9-14.7,6.8c-1.7,1.2-11.8,10.8-22.4,21.4L71,151.2h-2.5c-1.4,0-3.3,0.2-4.2,0.5c-0.9,0.3-5.5,3-10,6c-4.6,3-9.1,5.7-10,6c-0.9,0.2-3,0.5-4.7,0.5c-1.7,0-3.8-0.2-4.7-0.5c-0.9-0.3-5.5-3-10-6c-8.3-5.4-10.3-6.5-13.2-6.5H10v4.8c0,4.5,0.1,4.8,0.9,4.8c0.5,0,4.7,2.5,9.3,5.5c10,6.6,12.5,7.6,19.4,7.6s9.4-1,19.4-7.6c7-4.6,8.7-5.5,10.1-5.5s3.1,0.9,10.1,5.5c10,6.6,12.5,7.6,19.4,7.6s9.4-1,19.4-7.6c7-4.6,8.7-5.5,10.1-5.5s3.1,0.9,10.1,5.5c10,6.6,12.5,7.6,19.4,7.6s9.4-1,19.4-7.6c7-4.6,8.7-5.5,10.1-5.5s3.1,0.9,10.1,5.5c10,6.6,12.5,7.6,19.4,7.6s9.4-1,19.4-7.6c4.6-3,8.8-5.5,9.3-5.5c0.8,0,0.9-0.4,0.9-4.8v-4.8h-1.5c-2.9,0-5,1-13.3,6.5c-4.6,3-9.1,5.7-10,6c-2.2,0.6-7.2,0.6-9.4,0c-0.9-0.3-5.5-3-10-6c-4.6-3-9.1-5.7-10-6c-2.2-0.6-7.2-0.6-9.4,0c-0.9,0.3-5.5,3-10.1,6c-4.6,3-8.5,5.4-8.6,5.3c-0.1-0.1,0.5-1.2,1.4-2.4c6.6-9.3,8.7-21.6,5.2-31.8l-1.1-3.3l7.5-7.4c7.3-7.3,7.4-7.4,8.6-6.8c3.6,2.1,8.3-1.6,7-5.4c-0.3-1-4.3-5.3-11.5-12.4C168.6,81.4,168.1,81,165,82.9z M174.1,100.7l3,3l-9.9,9.9l-9.9,9.9l1.9,4.3c1,2.4,2.1,5.2,2.4,6.4c0.7,3,0.6,8-0.2,11.2c-1.3,5.1-5.4,11.9-9.5,15.9l-1.5,1.5l-8-5.3c-4.3-2.9-8.7-5.5-9.6-5.7c-2.3-0.6-7.2-0.6-9.5,0c-0.9,0.3-5.5,3-10,6c-4.6,3-9.1,5.7-10,6c-1.9,0.5-7.4,0.6-8.6,0.2c-0.6-0.2,2.4-3.5,12.8-14c9.1-9.1,13.7-14.1,14-14.9c0.5-2-0.4-4.1-2.1-5.3c-3.2-2.2-3.2-2.2-19.5,14.1l-14.7,14.7l-1.6-0.9c-0.9-0.5-1.8-1.1-2.1-1.4c-0.3-0.4,5.2-6.1,18.1-19c19.8-19.7,21.3-21,27.9-23.2c6.5-2.1,11.8-1.7,19.3,1.5l4.4,1.9l9.7-9.7c5.4-5.4,9.9-9.8,10-9.8C171,97.7,172.5,99,174.1,100.7z"/></g></g></g>
</svg>
